<svg width="130" height="130" viewBox="0 0 130 130" fill="none" xmlns="http://www.w3.org/2000/svg">
<g filter="url(#filter0_d_70_660)">
<circle cx="65" cy="55" r="35" fill="url(#paint0_linear_70_660)"/>
<path d="M72.5625 37.5H57.5C56.5054 37.5 55.5516 37.8951 54.8483 38.5984C54.1451 39.3016 53.75 40.2555 53.75 41.25V68.75C53.75 69.7446 54.1451 70.6984 54.8483 71.4017C55.5516 72.1049 56.5054 72.5 57.5 72.5H72.625C73.6196 72.5 74.5734 72.1049 75.2767 71.4017C75.9799 70.6984 76.375 69.7446 76.375 68.75V41.25C76.3751 40.7523 76.276 40.2595 76.0837 39.8004C75.8913 39.3413 75.6095 38.9251 75.2546 38.576C74.8998 38.227 74.479 37.9521 74.0168 37.7673C73.5546 37.5826 73.0602 37.4917 72.5625 37.5ZM65 69.625C64.6564 69.625 64.3204 69.5231 64.0347 69.3322C63.749 69.1413 63.5263 68.8699 63.3948 68.5524C63.2633 68.235 63.2288 67.8856 63.2959 67.5486C63.3629 67.2115 63.5284 66.9019 63.7714 66.6589C64.0144 66.4159 64.324 66.2505 64.661 66.1834C64.9981 66.1164 65.3474 66.1508 65.6649 66.2823C65.9824 66.4138 66.2538 66.6365 66.4447 66.9222C66.6356 67.208 66.7375 67.5439 66.7375 67.8875C66.7375 68.3483 66.5544 68.7903 66.2286 69.1161C65.9028 69.442 65.4608 69.625 65 69.625ZM67.7625 41.5625H62.2375C61.9889 41.5625 61.7504 41.4638 61.5746 41.2879C61.3988 41.1121 61.3 40.8737 61.3 40.625C61.3 40.3764 61.3988 40.1379 61.5746 39.9621C61.7504 39.7863 61.9889 39.6875 62.2375 39.6875H67.7625C68.0111 39.6875 68.2496 39.7863 68.4254 39.9621C68.6012 40.1379 68.7 40.3764 68.7 40.625C68.7 40.8737 68.6012 41.1121 68.4254 41.2879C68.2496 41.4638 68.0111 41.5625 67.7625 41.5625Z" fill="white"/>
</g>
<defs>
<filter id="filter0_d_70_660" x="0" y="0" width="130" height="130" filterUnits="userSpaceOnUse" color-interpolation-filters="sRGB">
<feFlood flood-opacity="0" result="BackgroundImageFix"/>
<feColorMatrix in="SourceAlpha" type="matrix" values="0 0 0 0 0 0 0 0 0 0 0 0 0 0 0 0 0 0 127 0" result="hardAlpha"/>
<feOffset dy="10"/>
<feGaussianBlur stdDeviation="15"/>
<feComposite in2="hardAlpha" operator="out"/>
<feColorMatrix type="matrix" values="0 0 0 0 0.0666667 0 0 0 0 0.0666667 0 0 0 0 1 0 0 0 0.3 0"/>
<feBlend mode="normal" in2="BackgroundImageFix" result="effect1_dropShadow_70_660"/>
<feBlend mode="normal" in="SourceGraphic" in2="effect1_dropShadow_70_660" result="shape"/>
</filter>
<linearGradient id="paint0_linear_70_660" x1="65" y1="20" x2="65" y2="90" gradientUnits="userSpaceOnUse">
<stop stop-color="#6989FE"/>
<stop offset="1" stop-color="#3C64F4"/>
</linearGradient>
</defs>
</svg>
