<svg width="130" height="130" viewBox="0 0 130 130" fill="none" xmlns="http://www.w3.org/2000/svg">
<g filter="url(#filter0_d_70_670)">
<circle cx="65" cy="55" r="35" fill="url(#paint0_linear_70_670)"/>
<path d="M81.2498 37.5H76.5373C72.7998 37.5 69.2998 39.15 66.9248 42.0375L52.7873 59.2C52.3748 59.7 52.4123 60.425 52.8623 60.8875L55.0998 63.125L58.4873 59.7375C58.9748 59.25 59.7748 59.25 60.2623 59.7375C60.7498 60.225 60.7498 61.025 60.2623 61.5125L56.8748 64.9L59.1123 67.1375C59.3623 67.375 59.6748 67.5 59.9998 67.5C60.2873 67.5 60.5623 67.4 60.7998 67.2125L77.9623 53.075C80.8498 50.7 82.4998 47.2 82.4998 43.4625V38.75C82.4998 38.0625 81.9373 37.5 81.2498 37.5ZM67.4998 55C66.1248 55 64.9998 53.875 64.9998 52.5C64.9998 51.125 66.1248 50 67.4998 50C68.8748 50 69.9998 51.125 69.9998 52.5C69.9998 53.875 68.8748 55 67.4998 55ZM73.7498 50C71.6873 50 69.9998 48.3125 69.9998 46.25C69.9998 44.1875 71.6873 42.5 73.7498 42.5C75.8123 42.5 77.4998 44.1875 77.4998 46.25C77.4998 48.3125 75.8123 50 73.7498 50Z" fill="white"/>
<path d="M73.75 47.5C74.4404 47.5 75 46.9404 75 46.25C75 45.5596 74.4404 45 73.75 45C73.0596 45 72.5 45.5596 72.5 46.25C72.5 46.9404 73.0596 47.5 73.75 47.5Z" fill="white"/>
<path d="M54.9998 66.775L52.7623 69.0125C52.5123 69.25 52.1998 69.375 51.8748 69.375C51.5498 69.375 51.2373 69.25 50.9873 69.0125C50.4998 68.525 50.4998 67.725 50.9873 67.2375L53.2248 65L54.9998 66.775ZM50.8548 57.6163L56.0973 51.25H52.4998C52.2675 51.2499 52.0398 51.3145 51.8422 51.4366C51.6446 51.5587 51.4849 51.7335 51.3811 51.9413L47.6311 59.4412C47.5362 59.6319 47.4915 59.8436 47.5013 60.0564C47.5111 60.2691 47.5751 60.4758 47.6871 60.6569C47.7991 60.8381 47.9555 60.9876 48.1415 61.0914C48.3275 61.1952 48.5368 61.2498 48.7498 61.25H50.2261C50.0062 60.6419 49.9486 59.987 50.0588 59.3498C50.1691 58.7126 50.4434 58.1152 50.8548 57.6163ZM62.3836 69.145C61.7117 69.6971 60.8694 69.9992 59.9998 70C59.5732 69.9961 59.1504 69.9191 58.7498 69.7725V71.25C58.7497 71.4631 58.8041 71.6727 58.9078 71.8588C59.0115 72.045 59.161 72.2016 59.3423 72.3137C59.5235 72.4258 59.7304 72.4897 59.9433 72.4993C60.1561 72.5089 60.3679 72.464 60.5586 72.3688L68.0586 68.6188C68.2664 68.5149 68.4411 68.3552 68.5632 68.1576C68.6853 67.96 68.7499 67.7323 68.7498 67.5V63.9025L62.3836 69.145Z" fill="white"/>
</g>
<defs>
<filter id="filter0_d_70_670" x="0" y="0" width="130" height="130" filterUnits="userSpaceOnUse" color-interpolation-filters="sRGB">
<feFlood flood-opacity="0" result="BackgroundImageFix"/>
<feColorMatrix in="SourceAlpha" type="matrix" values="0 0 0 0 0 0 0 0 0 0 0 0 0 0 0 0 0 0 127 0" result="hardAlpha"/>
<feOffset dy="10"/>
<feGaussianBlur stdDeviation="15"/>
<feComposite in2="hardAlpha" operator="out"/>
<feColorMatrix type="matrix" values="0 0 0 0 0.0666667 0 0 0 0 0.0666667 0 0 0 0 1 0 0 0 0.3 0"/>
<feBlend mode="normal" in2="BackgroundImageFix" result="effect1_dropShadow_70_670"/>
<feBlend mode="normal" in="SourceGraphic" in2="effect1_dropShadow_70_670" result="shape"/>
</filter>
<linearGradient id="paint0_linear_70_670" x1="65" y1="20" x2="65" y2="90" gradientUnits="userSpaceOnUse">
<stop stop-color="#6989FE"/>
<stop offset="1" stop-color="#3C64F4"/>
</linearGradient>
</defs>
</svg>
