<svg width="130" height="130" viewBox="0 0 130 130" fill="none" xmlns="http://www.w3.org/2000/svg">
<g filter="url(#filter0_d_70_646)">
<circle cx="65" cy="55" r="35" fill="url(#paint0_linear_70_646)"/>
<path d="M64.7001 62.9375L57.2001 54.1875C56.7251 53.6325 55.7751 53.6325 55.3001 54.1875L47.8001 62.9375C47.6448 63.1191 47.5447 63.3414 47.5119 63.5781C47.479 63.8148 47.5147 64.0559 47.6146 64.2729C47.7146 64.49 47.8747 64.6738 48.0759 64.8027C48.2772 64.9315 48.5111 65 48.7501 65H51.2501V71.25C51.2501 71.5815 51.3818 71.8995 51.6162 72.1339C51.8506 72.3683 52.1686 72.5 52.5001 72.5H60.0001C60.3316 72.5 60.6495 72.3683 60.884 72.1339C61.1184 71.8995 61.2501 71.5815 61.2501 71.25V65H63.7501C63.9888 64.9995 64.2224 64.9307 64.4233 64.8017C64.6242 64.6728 64.7841 64.4891 64.8839 64.2722C64.9838 64.0554 65.0196 63.8145 64.987 63.578C64.9544 63.3415 64.8549 63.1192 64.7001 62.9375Z" fill="white"/>
<path d="M82.2263 50.4688L72.2263 37.9688C71.7513 37.375 70.7501 37.375 70.2738 37.9688L60.2738 50.4688C60.1271 50.6528 60.0353 50.8744 60.0089 51.1083C59.9825 51.3421 60.0225 51.5787 60.1245 51.7908C60.2264 52.0029 60.3861 52.1819 60.5852 52.3074C60.7843 52.4328 61.0148 52.4996 61.2501 52.5H63.7501V57.9875L66.5963 61.31C67.5476 62.4175 67.7676 63.99 67.1576 65.3175C66.8566 65.9681 66.3759 66.5192 65.7722 66.9058C65.1686 67.2925 64.467 67.4986 63.7501 67.5V71.25C63.7501 71.5815 63.8818 71.8995 64.1162 72.1339C64.3506 72.3683 64.6686 72.5 65.0001 72.5H77.5001C77.8316 72.5 78.1496 72.3683 78.384 72.1339C78.6184 71.8995 78.7501 71.5815 78.7501 71.25V52.5H81.2501C81.4854 52.4996 81.7159 52.4328 81.915 52.3074C82.1141 52.1819 82.2738 52.0029 82.3757 51.7908C82.4777 51.5787 82.5177 51.3421 82.4913 51.1083C82.4649 50.8744 82.3731 50.6528 82.2263 50.4688ZM72.5001 62.34V62.5C72.5001 62.8315 72.3684 63.1495 72.134 63.3839C71.8996 63.6183 71.5816 63.75 71.2501 63.75C70.9186 63.75 70.6006 63.6183 70.3662 63.3839C70.1318 63.1495 70.0001 62.8315 70.0001 62.5H69.6876C69.3561 62.5 69.0381 62.3683 68.8037 62.1339C68.5693 61.8995 68.4376 61.5815 68.4376 61.25C68.4376 60.9185 68.5693 60.6005 68.8037 60.3661C69.0381 60.1317 69.3561 60 69.6876 60H71.5626C71.7215 59.9899 71.8707 59.9197 71.9796 59.8036C72.0886 59.6875 72.1493 59.5342 72.1493 59.375C72.1493 59.2158 72.0886 59.0625 71.9796 58.9464C71.8707 58.8303 71.7215 58.7601 71.5626 58.75H70.9376C70.109 58.7493 69.3145 58.4199 68.7286 57.834C68.1427 57.2481 67.8133 56.4536 67.8126 55.625C67.8126 54.23 68.7376 53.06 70.0001 52.66V52.5C70.0001 52.1685 70.1318 51.8505 70.3662 51.6161C70.6006 51.3817 70.9186 51.25 71.2501 51.25C71.5816 51.25 71.8996 51.3817 72.134 51.6161C72.3684 51.8505 72.5001 52.1685 72.5001 52.5C72.8316 52.5 73.1496 52.6317 73.384 52.8661C73.6184 53.1005 73.7501 53.4185 73.7501 53.75C73.7501 54.0815 73.6184 54.3995 73.384 54.6339C73.1496 54.8683 72.8316 55 72.5001 55H70.9376C70.7787 55.0101 70.6295 55.0803 70.5206 55.1964C70.4116 55.3125 70.3509 55.4658 70.3509 55.625C70.3509 55.7842 70.4116 55.9375 70.5206 56.0536C70.6295 56.1697 70.7787 56.2399 70.9376 56.25H71.5626C73.2863 56.25 74.6876 57.6513 74.6876 59.375C74.6876 60.77 73.7626 61.94 72.5001 62.34Z" fill="white"/>
</g>
<defs>
<filter id="filter0_d_70_646" x="0" y="0" width="130" height="130" filterUnits="userSpaceOnUse" color-interpolation-filters="sRGB">
<feFlood flood-opacity="0" result="BackgroundImageFix"/>
<feColorMatrix in="SourceAlpha" type="matrix" values="0 0 0 0 0 0 0 0 0 0 0 0 0 0 0 0 0 0 127 0" result="hardAlpha"/>
<feOffset dy="10"/>
<feGaussianBlur stdDeviation="15"/>
<feComposite in2="hardAlpha" operator="out"/>
<feColorMatrix type="matrix" values="0 0 0 0 0.0666667 0 0 0 0 0.0666667 0 0 0 0 1 0 0 0 0.3 0"/>
<feBlend mode="normal" in2="BackgroundImageFix" result="effect1_dropShadow_70_646"/>
<feBlend mode="normal" in="SourceGraphic" in2="effect1_dropShadow_70_646" result="shape"/>
</filter>
<linearGradient id="paint0_linear_70_646" x1="65" y1="20" x2="65" y2="90" gradientUnits="userSpaceOnUse">
<stop stop-color="#6989FE"/>
<stop offset="1" stop-color="#3C64F4"/>
</linearGradient>
</defs>
</svg>
