<svg width="130" height="130" viewBox="0 0 130 130" fill="none" xmlns="http://www.w3.org/2000/svg">
<g filter="url(#filter0_d_70_655)">
<circle cx="65" cy="55" r="35" fill="url(#paint0_linear_70_655)"/>
<path d="M79.4487 44.36L66.5074 37.8575C66.0394 37.6227 65.523 37.5004 64.9993 37.5004C64.4757 37.5004 63.9592 37.6227 63.4912 37.8575L50.5512 44.36C49.9823 44.646 49.5064 45.0876 49.1789 45.6336C48.8514 46.1795 48.6857 46.8073 48.7012 47.4438C48.8187 52.8113 50.3549 66.6638 62.6912 72.0213C63.4203 72.3373 64.2065 72.5004 65.0012 72.5004C65.7959 72.5004 66.5821 72.3373 67.3112 72.0213C79.6462 66.6638 81.1824 52.8113 81.3012 47.4438C81.3287 46.1425 80.6112 44.9438 79.4487 44.36ZM66.1199 60.52V61.25C66.1199 61.5484 66.0014 61.8346 65.7904 62.0455C65.5795 62.2565 65.2933 62.375 64.9949 62.375C64.6966 62.375 64.4104 62.2565 64.1994 62.0455C63.9885 61.8346 63.8699 61.5484 63.8699 61.25V60.8325L63.7862 60.8338C63.1587 60.8338 62.5462 60.5888 62.0949 60.1525C61.8605 59.9281 61.6741 59.6583 61.5471 59.3597C61.4201 59.061 61.3552 58.7396 61.3562 58.415C61.356 58.1167 61.4744 57.8305 61.6853 57.6194C61.8961 57.4083 62.1822 57.2896 62.4806 57.2894C62.7789 57.2893 63.0651 57.4076 63.2762 57.6185C63.4873 57.8293 63.606 58.1154 63.6062 58.4138C63.6062 58.46 63.6237 58.5 63.6562 58.5338C63.6824 58.5588 63.7312 58.5875 63.7887 58.5838C64.5012 58.5575 66.8337 58.3888 66.8637 57.2538C66.8749 56.8338 66.0812 56.4025 64.7412 56.0988C62.0687 55.49 60.7737 54.3063 60.8912 52.5825C60.9562 51.6225 61.4749 50.1338 63.8687 49.4838V48.75C63.8687 48.4517 63.9872 48.1655 64.1982 47.9545C64.4092 47.7436 64.6953 47.625 64.9937 47.625C65.2921 47.625 65.5782 47.7436 65.7892 47.9545C66.0002 48.1655 66.1187 48.4517 66.1187 48.75V49.17H66.1287C66.8049 49.1275 67.4087 49.3875 67.8837 49.8438C68.3537 50.2975 68.6237 50.9338 68.6237 51.5875C68.6237 51.8859 68.5052 52.1721 68.2942 52.383C68.0832 52.594 67.7971 52.7125 67.4987 52.7125C67.2003 52.7125 66.9142 52.594 66.7032 52.383C66.4922 52.1721 66.3737 51.8859 66.3737 51.5875C66.3741 51.5642 66.3697 51.541 66.3606 51.5195C66.3516 51.498 66.3382 51.4786 66.3212 51.4625H66.2749C65.0449 51.4625 63.2062 51.6938 63.1349 52.735C63.1062 53.1788 63.8337 53.585 65.2412 53.905C67.8537 54.4988 69.1574 55.645 69.1137 57.3138C69.0924 58.1238 68.7187 59.8138 66.1199 60.52Z" fill="white"/>
</g>
<defs>
<filter id="filter0_d_70_655" x="0" y="0" width="130" height="130" filterUnits="userSpaceOnUse" color-interpolation-filters="sRGB">
<feFlood flood-opacity="0" result="BackgroundImageFix"/>
<feColorMatrix in="SourceAlpha" type="matrix" values="0 0 0 0 0 0 0 0 0 0 0 0 0 0 0 0 0 0 127 0" result="hardAlpha"/>
<feOffset dy="10"/>
<feGaussianBlur stdDeviation="15"/>
<feComposite in2="hardAlpha" operator="out"/>
<feColorMatrix type="matrix" values="0 0 0 0 0.0666667 0 0 0 0 0.0666667 0 0 0 0 1 0 0 0 0.3 0"/>
<feBlend mode="normal" in2="BackgroundImageFix" result="effect1_dropShadow_70_655"/>
<feBlend mode="normal" in="SourceGraphic" in2="effect1_dropShadow_70_655" result="shape"/>
</filter>
<linearGradient id="paint0_linear_70_655" x1="65" y1="20" x2="65" y2="90" gradientUnits="userSpaceOnUse">
<stop stop-color="#6989FE"/>
<stop offset="1" stop-color="#3C64F4"/>
</linearGradient>
</defs>
</svg>
