<svg width="130" height="130" viewBox="0 0 130 130" fill="none" xmlns="http://www.w3.org/2000/svg">
<g filter="url(#filter0_d_70_677)">
<circle cx="65" cy="55" r="35" fill="url(#paint0_linear_70_677)"/>
<path d="M73.5051 51.1925V44.8813C73.508 43.7636 73.2894 42.6564 72.8618 41.6237C72.4342 40.5911 71.8061 39.6534 71.0138 38.865C70.2251 38.0733 69.2874 37.4456 68.2548 37.0182C67.2222 36.5909 66.1151 36.3723 64.9976 36.375C62.7424 36.3777 60.5803 37.2747 58.9857 38.8694C57.391 40.464 56.494 42.6261 56.4913 44.8813V51.1963C55.2751 52.3473 54.3065 53.7344 53.6447 55.2726C52.983 56.8109 52.642 58.468 52.6426 60.1425C52.6426 66.9675 58.1751 72.5 65.0001 72.5C71.8251 72.5 77.3576 66.9675 77.3576 60.1425C77.358 58.4671 77.0166 56.8092 76.3542 55.2703C75.6917 53.7314 74.7223 52.3438 73.5051 51.1925ZM66.1251 61.2475V63.5838C66.1251 63.8821 66.0066 64.1683 65.7956 64.3793C65.5846 64.5903 65.2984 64.7088 65.0001 64.7088C64.7017 64.7088 64.4156 64.5903 64.2046 64.3793C63.9936 64.1683 63.8751 63.8821 63.8751 63.5838V61.2475C63.396 60.9979 63.0146 60.5945 62.7924 60.1021C62.5702 59.6097 62.5199 59.0569 62.6497 58.5325C62.7795 58.0081 63.0818 57.5425 63.5081 57.2106C63.9344 56.8787 64.4599 56.6998 65.0001 56.7025C65.5403 56.6998 66.0658 56.8787 66.492 57.2106C66.9183 57.5425 67.2206 58.0081 67.3504 58.5325C67.4802 59.0569 67.43 59.6097 67.2078 60.1021C66.9855 60.5945 66.6042 60.9979 66.1251 61.2475ZM71.2538 49.4975C69.3594 48.3766 67.1985 47.7854 64.9972 47.7858C62.796 47.7862 60.6353 48.3783 58.7413 49.5V44.8813C58.7433 43.2226 59.4031 41.6325 60.5759 40.4596C61.7488 39.2868 63.3389 38.627 64.9976 38.625C66.6688 38.625 68.2413 39.2763 69.4226 40.4563C70.0052 41.0362 70.467 41.7258 70.7813 42.4854C71.0957 43.2449 71.2563 44.0593 71.2538 44.8813V49.4975Z" fill="white"/>
</g>
<defs>
<filter id="filter0_d_70_677" x="0" y="0" width="130" height="130" filterUnits="userSpaceOnUse" color-interpolation-filters="sRGB">
<feFlood flood-opacity="0" result="BackgroundImageFix"/>
<feColorMatrix in="SourceAlpha" type="matrix" values="0 0 0 0 0 0 0 0 0 0 0 0 0 0 0 0 0 0 127 0" result="hardAlpha"/>
<feOffset dy="10"/>
<feGaussianBlur stdDeviation="15"/>
<feComposite in2="hardAlpha" operator="out"/>
<feColorMatrix type="matrix" values="0 0 0 0 0.0666667 0 0 0 0 0.0666667 0 0 0 0 1 0 0 0 0.3 0"/>
<feBlend mode="normal" in2="BackgroundImageFix" result="effect1_dropShadow_70_677"/>
<feBlend mode="normal" in="SourceGraphic" in2="effect1_dropShadow_70_677" result="shape"/>
</filter>
<linearGradient id="paint0_linear_70_677" x1="65" y1="20" x2="65" y2="90" gradientUnits="userSpaceOnUse">
<stop stop-color="#6989FE"/>
<stop offset="1" stop-color="#3C64F4"/>
</linearGradient>
</defs>
</svg>
