<svg width="130" height="130" viewBox="0 0 130 130" fill="none" xmlns="http://www.w3.org/2000/svg">
<g filter="url(#filter0_d_70_682)">
<circle cx="65" cy="55" r="35" fill="url(#paint0_linear_70_682)"/>
<path d="M72.5 67.5H57.5L55.25 70.5C55.1107 70.6857 55.0259 70.9066 55.0051 71.1378C54.9842 71.369 55.0282 71.6014 55.132 71.809C55.2358 72.0167 55.3954 72.1913 55.5928 72.3133C55.7903 72.4354 56.0179 72.5 56.25 72.5H73.75C73.9821 72.5 74.2097 72.4354 74.4072 72.3133C74.6046 72.1913 74.7642 72.0167 74.868 71.809C74.9719 71.6014 75.0158 71.369 74.995 71.1378C74.9741 70.9066 74.8893 70.6857 74.75 70.5L72.5 67.5ZM77.1338 49.1163L69.6338 41.6163C69.3994 41.3818 69.0815 41.2501 68.75 41.25H65.4838L66.1863 39.145C66.2637 38.9123 66.271 38.6619 66.2071 38.4251C66.1433 38.1883 66.0112 37.9755 65.8274 37.8132C65.6435 37.6509 65.4159 37.5463 65.173 37.5124C64.9301 37.4785 64.6826 37.5168 64.4613 37.6225L60.0563 39.725C60.0026 39.7505 59.9508 39.7797 59.9013 39.8125C58.3918 40.8165 57.1543 42.1785 56.2991 43.777C55.4439 45.3756 54.9976 47.1609 55 48.9738V62.5C55.0001 62.8315 55.1318 63.1494 55.3663 63.3838L56.9825 65H60V52.5C60 52.1685 60.1317 51.8506 60.3661 51.6161C60.6005 51.3817 60.9185 51.25 61.25 51.25C61.5815 51.25 61.8995 51.3817 62.1339 51.6161C62.3683 51.8506 62.5 52.1685 62.5 52.5V65H73.0175L74.6338 63.3838C74.8193 63.1984 74.9419 62.9593 74.984 62.7004C75.0262 62.4416 74.9859 62.176 74.8688 61.9413L70.6138 53.4338C71.82 53.6213 72.855 54.6225 72.8663 54.6338C72.996 54.7661 73.1541 54.8672 73.3286 54.9296C73.5031 54.9919 73.6895 55.0139 73.8738 54.9938C74.0577 54.9756 74.2352 54.9168 74.3937 54.8217C74.5521 54.7266 74.6875 54.5975 74.79 54.4438L77.29 50.6938C77.4504 50.4533 77.5224 50.1647 77.4939 49.8771C77.4654 49.5895 77.3382 49.3206 77.1338 49.1163Z" fill="white"/>
</g>
<defs>
<filter id="filter0_d_70_682" x="0" y="0" width="130" height="130" filterUnits="userSpaceOnUse" color-interpolation-filters="sRGB">
<feFlood flood-opacity="0" result="BackgroundImageFix"/>
<feColorMatrix in="SourceAlpha" type="matrix" values="0 0 0 0 0 0 0 0 0 0 0 0 0 0 0 0 0 0 127 0" result="hardAlpha"/>
<feOffset dy="10"/>
<feGaussianBlur stdDeviation="15"/>
<feComposite in2="hardAlpha" operator="out"/>
<feColorMatrix type="matrix" values="0 0 0 0 0.0666667 0 0 0 0 0.0666667 0 0 0 0 1 0 0 0 0.3 0"/>
<feBlend mode="normal" in2="BackgroundImageFix" result="effect1_dropShadow_70_682"/>
<feBlend mode="normal" in="SourceGraphic" in2="effect1_dropShadow_70_682" result="shape"/>
</filter>
<linearGradient id="paint0_linear_70_682" x1="65" y1="20" x2="65" y2="90" gradientUnits="userSpaceOnUse">
<stop stop-color="#6989FE"/>
<stop offset="1" stop-color="#3C64F4"/>
</linearGradient>
</defs>
</svg>
