<svg width="130" height="130" viewBox="0 0 130 130" fill="none" xmlns="http://www.w3.org/2000/svg">
<g filter="url(#filter0_d_70_665)">
<circle cx="65" cy="55" r="35" fill="url(#paint0_linear_70_665)"/>
<path d="M76.25 39.2775H53.75C52.0924 39.2775 50.5027 39.9359 49.3306 41.108C48.1585 42.2802 47.5 43.8699 47.5 45.5275V58.6262C47.5 60.2838 48.1585 61.8735 49.3306 63.0456C50.5027 64.2177 52.0924 64.8762 53.75 64.8762H59.9525L63.5613 69.9775C63.7241 70.2076 63.9397 70.3953 64.19 70.5248C64.4404 70.6543 64.7181 70.7219 65 70.7219C65.2819 70.7219 65.5596 70.6543 65.81 70.5248C66.0603 70.3953 66.2759 70.2076 66.4387 69.9775L70.0475 64.8762H76.25C77.9076 64.8762 79.4973 64.2177 80.6694 63.0456C81.8415 61.8735 82.5 60.2838 82.5 58.6262V45.5275C82.5 43.8699 81.8415 42.2802 80.6694 41.108C79.4973 39.9359 77.9076 39.2775 76.25 39.2775ZM56.78 54.2125C56.2136 54.2125 55.6704 53.9875 55.2699 53.587C54.8694 53.1864 54.6444 52.6432 54.6444 52.0768C54.6444 51.5104 54.8694 50.9672 55.2699 50.5667C55.6704 50.1662 56.2136 49.9412 56.78 49.9412C57.3464 49.9412 57.8896 50.1662 58.2901 50.5667C58.6906 50.9672 58.9156 51.5104 58.9156 52.0768C58.9156 52.6432 58.6906 53.1864 58.2901 53.587C57.8896 53.9875 57.3464 54.2125 56.78 54.2125ZM65 54.2125C64.4336 54.2125 63.8904 53.9875 63.4899 53.587C63.0894 53.1864 62.8644 52.6432 62.8644 52.0768C62.8644 51.5104 63.0894 50.9672 63.4899 50.5667C63.8904 50.1662 64.4336 49.9412 65 49.9412C65.5664 49.9412 66.1096 50.1662 66.5101 50.5667C66.9106 50.9672 67.1356 51.5104 67.1356 52.0768C67.1356 52.6432 66.9106 53.1864 66.5101 53.587C66.1096 53.9875 65.5664 54.2125 65 54.2125ZM73.22 54.2125C72.6536 54.2125 72.1104 53.9875 71.7099 53.587C71.3094 53.1864 71.0844 52.6432 71.0844 52.0768C71.0844 51.5104 71.3094 50.9672 71.7099 50.5667C72.1104 50.1662 72.6536 49.9412 73.22 49.9412C73.7864 49.9412 74.3296 50.1662 74.7301 50.5667C75.1306 50.9672 75.3556 51.5104 75.3556 52.0768C75.3556 52.6432 75.1306 53.1864 74.7301 53.587C74.3296 53.9875 73.7864 54.2125 73.22 54.2125Z" fill="white"/>
</g>
<defs>
<filter id="filter0_d_70_665" x="0" y="0" width="130" height="130" filterUnits="userSpaceOnUse" color-interpolation-filters="sRGB">
<feFlood flood-opacity="0" result="BackgroundImageFix"/>
<feColorMatrix in="SourceAlpha" type="matrix" values="0 0 0 0 0 0 0 0 0 0 0 0 0 0 0 0 0 0 127 0" result="hardAlpha"/>
<feOffset dy="10"/>
<feGaussianBlur stdDeviation="15"/>
<feComposite in2="hardAlpha" operator="out"/>
<feColorMatrix type="matrix" values="0 0 0 0 0.0666667 0 0 0 0 0.0666667 0 0 0 0 1 0 0 0 0.3 0"/>
<feBlend mode="normal" in2="BackgroundImageFix" result="effect1_dropShadow_70_665"/>
<feBlend mode="normal" in="SourceGraphic" in2="effect1_dropShadow_70_665" result="shape"/>
</filter>
<linearGradient id="paint0_linear_70_665" x1="65" y1="20" x2="65" y2="90" gradientUnits="userSpaceOnUse">
<stop stop-color="#6989FE"/>
<stop offset="1" stop-color="#3C64F4"/>
</linearGradient>
</defs>
</svg>
