<svg width="130" height="130" viewBox="0 0 130 130" fill="none" xmlns="http://www.w3.org/2000/svg">
<g filter="url(#filter0_d_70_640)">
<circle cx="65" cy="55" r="35" fill="url(#paint0_linear_70_640)"/>
<path d="M66.425 53.8875C66.425 54.625 65.2 55.75 62.4875 56.45C61 56.8625 59.25 57.075 57.425 57.075C55.6125 57.075 53.8625 56.8625 52.3875 56.4625C49.65 55.75 48.4375 54.65 48.4375 53.8875C48.4375 52.5875 51.9375 50.7 57.425 50.7C62.925 50.7 66.425 52.5875 66.425 53.8875ZM81.5625 42.1875C81.5625 42.9375 80.325 44.0625 77.6 44.75C76.1 45.15 74.35 45.35 72.5625 45.35C70.775 45.35 69.0375 45.15 67.5375 44.75C64.8125 44.0625 63.575 42.9375 63.575 42.1875C63.575 40.8875 67.075 39 72.5625 39C78.1375 39 81.5625 40.85 81.5625 42.1875ZM63.205 66.1537C61.4738 66.6087 59.4762 66.85 57.4263 66.85C55.385 66.85 53.3925 66.61 51.6625 66.155C49.9087 65.6912 48.5163 65.0287 47.5 64.2287V67.8187C47.5 70.0937 51.9462 71.9425 57.4275 71.9425C62.9213 71.9425 67.3675 70.0937 67.3675 67.8187V64.2287C66.3512 65.0287 64.9587 65.6912 63.205 66.1537Z" fill="white"/>
<path d="M62.9562 58.2663C61.3525 58.71 59.4287 58.95 57.425 58.95C55.4425 58.95 53.5312 58.715 51.8963 58.2725C49.8813 57.7475 48.3888 56.9638 47.5 56.0175V60.8513C47.5 62.325 49.3487 63.605 52.14 64.3413C53.665 64.7425 55.4875 64.975 57.4263 64.975C59.3775 64.975 61.2 64.7425 62.7262 64.3413C65.5187 63.605 67.3662 62.3113 67.3662 60.8513V55.99C66.47 56.9488 64.9625 57.7488 62.9562 58.2663ZM78.0588 46.5675C76.4563 46.995 74.5462 47.225 72.5625 47.225C70.5862 47.225 68.6812 46.995 67.055 46.5613C65.0475 46.055 63.5338 45.2588 62.6338 44.2963V49.1488C62.6338 49.2388 62.6613 49.325 62.675 49.4125C65.4438 50.0913 67.4263 51.3088 68.0713 52.8088C69.4213 53.1025 70.945 53.2713 72.56 53.2713C74.5112 53.2713 76.3213 53.0388 77.86 52.625C80.6512 51.9025 82.5 50.6225 82.5 49.1488V44.3C81.5975 45.2613 80.0788 46.0588 78.0588 46.5675ZM78.33 54.4413C76.615 54.9013 74.615 55.1475 72.56 55.1475C71.4163 55.1475 70.3112 55.0475 69.2425 54.9V59.9938C70.2837 60.1475 71.395 60.24 72.56 60.24C74.5112 60.24 76.3213 60.0075 77.86 59.6063C80.6512 58.87 82.5 57.59 82.5 56.1163V52.5288C81.4825 53.3275 80.0875 53.9863 78.33 54.4413ZM78.3375 61.4188C76.59 61.875 74.5938 62.115 72.5588 62.115C71.4225 62.115 70.31 62.0275 69.2412 61.8825V66.97C70.2787 67.1225 71.3938 67.2075 72.5588 67.2075C78.0525 67.2075 82.4987 65.3725 82.4987 63.0838V59.4938C81.4837 60.2938 80.0925 60.9563 78.3375 61.4188Z" fill="white"/>
</g>
<defs>
<filter id="filter0_d_70_640" x="0" y="0" width="130" height="130" filterUnits="userSpaceOnUse" color-interpolation-filters="sRGB">
<feFlood flood-opacity="0" result="BackgroundImageFix"/>
<feColorMatrix in="SourceAlpha" type="matrix" values="0 0 0 0 0 0 0 0 0 0 0 0 0 0 0 0 0 0 127 0" result="hardAlpha"/>
<feOffset dy="10"/>
<feGaussianBlur stdDeviation="15"/>
<feComposite in2="hardAlpha" operator="out"/>
<feColorMatrix type="matrix" values="0 0 0 0 0.0666667 0 0 0 0 0.0666667 0 0 0 0 1 0 0 0 0.3 0"/>
<feBlend mode="normal" in2="BackgroundImageFix" result="effect1_dropShadow_70_640"/>
<feBlend mode="normal" in="SourceGraphic" in2="effect1_dropShadow_70_640" result="shape"/>
</filter>
<linearGradient id="paint0_linear_70_640" x1="65" y1="20" x2="65" y2="90" gradientUnits="userSpaceOnUse">
<stop stop-color="#6989FE"/>
<stop offset="1" stop-color="#3C64F4"/>
</linearGradient>
</defs>
</svg>
