<svg width="768" height="818" viewBox="0 0 768 818" fill="none" xmlns="http://www.w3.org/2000/svg">
<path d="M225.712 202.168C-238.902 463.217 -542.477 430.892 -693.013 355.528C-849.718 577.861 -1137.33 795.959 -928.876 749.5C-668.312 691.426 -502.513 672.67 -290.319 774.546C-66.5063 882 320.994 788.197 579.994 749.5C887.494 703.557 1135.63 1003.41 1343.68 1196.05L1369.99 355.528C1022.91 -16.0311 689.917 -58.6516 225.712 202.168Z" fill="url(#paint0_linear_437_109)" fill-opacity="0.2"/>
<path d="M295.712 166.168C-168.902 427.217 -472.477 394.892 -623.013 319.528C-779.718 541.861 -1067.33 759.959 -858.876 713.5C-598.312 655.426 -432.513 636.67 -220.319 738.546C3.49365 846 390.994 752.197 649.994 713.5C957.494 667.557 1205.63 967.407 1413.68 1160.05L1439.99 319.528C1092.91 -52.0311 759.917 -94.6516 295.712 166.168Z" fill="url(#paint1_linear_437_109)"/>
<defs>
<linearGradient id="paint0_linear_437_109" x1="194.994" y1="36" x2="194.994" y2="1411" gradientUnits="userSpaceOnUse">
<stop stop-color="#6989FE"/>
<stop offset="1" stop-color="#3C64F4"/>
</linearGradient>
<linearGradient id="paint1_linear_437_109" x1="264.994" y1="0" x2="264.994" y2="1375" gradientUnits="userSpaceOnUse">
<stop stop-color="#6989FE"/>
<stop offset="1" stop-color="#3C64F4"/>
</linearGradient>
</defs>
</svg>
