<svg width="1440" height="840" viewBox="0 0 1440 840" fill="none" xmlns="http://www.w3.org/2000/svg">
<path d="M739.718 194.168C275.105 455.217 -28.4702 422.892 -179.007 347.528C-335.712 569.861 -623.321 787.959 -414.87 741.5C-154.306 683.426 11.4931 664.67 223.687 766.546C447.5 874 835 780.197 1094 741.5C1401.5 695.557 1649.64 995.407 1857.69 1188.05L1884 347.528C1536.91 -24.0311 1203.92 -66.6516 739.718 194.168Z" fill="url(#paint0_linear_404_109)" fill-opacity="0.2"/>
<path d="M739.718 166.168C275.105 427.217 -28.4702 394.892 -179.007 319.528C-335.712 541.861 -623.321 759.959 -414.87 713.5C-154.306 655.426 11.4931 636.67 223.687 738.546C447.5 846 835 752.197 1094 713.5C1401.5 667.557 1649.64 967.407 1857.69 1160.05L1884 319.528C1536.91 -52.0311 1203.92 -94.6516 739.718 166.168Z" fill="url(#paint1_linear_404_109)"/>
<defs>
<linearGradient id="paint0_linear_404_109" x1="709" y1="28" x2="709" y2="1403" gradientUnits="userSpaceOnUse">
<stop stop-color="#6989FE"/>
<stop offset="1" stop-color="#3C64F4"/>
</linearGradient>
<linearGradient id="paint1_linear_404_109" x1="709" y1="0" x2="709" y2="1375" gradientUnits="userSpaceOnUse">
<stop stop-color="#6989FE"/>
<stop offset="1" stop-color="#3C64F4"/>
</linearGradient>
</defs>
</svg>
