<svg width="75" height="60" viewBox="0 0 75 60" fill="none" xmlns="http://www.w3.org/2000/svg">
<g clip-path="url(#clip0_70_2248)">
<path fill-rule="evenodd" clip-rule="evenodd" d="M46.982 0.64884C47.0044 0.423738 46.993 0.19528 46.9566 0.141092C46.8 -0.0921145 45.5254 -0.0306412 43.9887 0.284175C41.2023 0.855119 38.6833 2.1621 36.2815 4.28306C36.0378 4.49834 35.9557 4.52601 35.6886 4.48303C35.4739 4.44849 35.2768 4.47935 35.0471 4.58355C34.7497 4.71853 34.7061 4.72098 34.6232 4.60712C34.4862 4.41877 34.0419 4.20939 33.7825 4.21078C33.4557 4.2125 33.1804 4.37556 32.9675 4.69348C32.7046 5.08598 32.7242 5.48969 33.0259 5.90265C33.2628 6.2268 33.2663 6.24489 33.148 6.53007C32.9898 6.91078 32.9937 7.19875 33.1606 7.48303C33.2937 7.70993 33.2919 7.71558 32.9634 8.06862C31.8107 9.30778 30.6108 11.3981 30.0147 13.2056C29.5676 14.5616 29.4404 15.2321 29.3898 16.5016C29.3343 17.8906 29.3996 18.503 29.6154 18.6193C29.9247 18.7858 30.0636 18.5957 30.2584 17.739C30.6286 16.1107 31.2171 14.5049 31.9769 13.05C32.507 12.0349 33.6301 10.3626 34.2234 9.70477L34.6936 9.18368L35.0378 9.36434C35.2962 9.50005 35.4583 9.53231 35.6885 9.49392L35.9951 9.44267L42.9501 16.444C46.7754 20.2948 50.0204 23.5007 50.1614 23.5683C50.7655 23.8578 51.5131 23.6597 51.9242 23.1011C52.1458 22.8002 52.2024 22.0814 52.0308 21.7475C51.9597 21.6092 48.7619 18.3404 44.9245 14.4836C41.0871 10.6267 37.9598 7.42794 37.975 7.37515C37.9901 7.32235 38.0014 7.10699 38 6.89654C37.9976 6.52958 38.0147 6.50118 38.4198 6.19921C39.3879 5.47757 40.1413 5.07354 41.3193 4.64404C42.7562 4.12025 44.4866 3.80494 45.9416 3.80191C46.6487 3.80036 46.7003 3.78873 46.7647 3.6161C46.8024 3.51476 46.8577 2.89782 46.8874 2.24502C46.9171 1.59223 46.9597 0.873945 46.982 0.64884ZM38.6863 3.24669C40.4121 2.08033 42.8039 1.1525 44.9431 0.819593C45.3457 0.75689 45.8134 0.702047 45.9822 0.697708L46.2894 0.689768L46.2399 1.81528C46.2127 2.43435 46.1763 2.98688 46.1591 3.04311C46.1373 3.114 45.9209 3.14592 45.454 3.14691C43.0426 3.15231 40.3629 4.02366 38.251 5.48928L37.4972 6.01242L36.9926 5.5262L36.488 5.03998L36.6482 4.86145C36.8673 4.61752 38.0819 3.65523 38.6863 3.24669ZM33.5815 5.54748C33.3839 5.36756 33.3933 5.14704 33.6048 4.99798C33.7984 4.86153 34.0663 4.92317 34.1989 5.13468C34.2616 5.23471 34.2347 5.3164 34.0869 5.47463C33.8588 5.71905 33.7821 5.7301 33.5815 5.54748ZM33.6768 6.98813C33.6768 6.92756 34.0721 6.48022 34.5553 5.994C35.0385 5.50778 35.4813 5.10996 35.5394 5.10996C35.7175 5.10996 37.3353 6.77097 37.3363 6.9549C37.3377 7.19703 35.7604 8.79348 35.5197 8.79348C35.3924 8.79348 35.0758 8.52884 34.5057 7.94584C34.0498 7.47968 33.6768 7.04871 33.6768 6.98813ZM36.4855 8.96038L36.929 8.50862C37.1729 8.26011 37.42 8.05676 37.478 8.05676C37.6465 8.05676 51.3335 21.8799 51.4242 22.1417C51.5852 22.6065 51.1001 23.1172 50.6108 22.998C50.4665 22.9629 48.0491 20.588 43.4394 15.9527L36.4855 8.96038ZM30.4746 13.9611C31.0178 12.0742 31.9677 10.2912 33.2383 8.77302C33.4926 8.46909 33.7208 8.22049 33.7453 8.22049C33.7698 8.22049 33.891 8.31798 34.0145 8.43708L34.2391 8.65359L33.8113 9.15331C32.7498 10.393 31.9426 11.6031 31.2665 12.9681C30.7575 13.9961 30.2603 15.15 30.2603 15.3034C30.2603 15.3643 30.2289 15.4337 30.1905 15.4575C30.0954 15.5167 30.2283 14.8165 30.4746 13.9611ZM24.9339 14.4971C25.4297 13.9982 25.3755 13.2874 24.8102 12.8734C24.3063 12.5044 23.6444 12.6716 23.3425 13.2444C23.102 13.7005 23.1703 14.1174 23.5476 14.4971C23.7844 14.7353 23.8702 14.7689 24.2408 14.7689C24.6114 14.7689 24.6972 14.7353 24.9339 14.4971ZM24.077 14.0725C23.9295 13.9807 23.8471 13.6758 23.9278 13.5206C24.0343 13.3162 24.4548 13.3317 24.5678 13.5442C24.6166 13.636 24.6338 13.7832 24.6059 13.8714C24.5517 14.0433 24.228 14.1664 24.077 14.0725ZM39.2059 14.8508C39.2059 14.4671 39.0593 14.1985 38.7273 13.9733C38.1939 13.6116 37.4998 13.8089 37.2203 14.4017C36.7698 15.3568 37.86 16.3164 38.7273 15.7283C39.0593 15.5031 39.2059 15.2344 39.2059 14.8508ZM37.8254 14.8453C37.8254 14.6657 37.8744 14.5816 38.0084 14.5315C38.2326 14.4476 38.3745 14.4959 38.4784 14.6913C38.5979 14.916 38.5762 14.9984 38.3596 15.1412C38.0831 15.3235 37.8254 15.1807 37.8254 14.8453ZM28.4707 16.8014C28.4707 16.3813 27.3231 15.0166 26.7016 14.6976C26.2808 14.4815 26.0609 14.4767 25.9522 14.6812C25.8334 14.9044 25.9129 15.0487 26.2415 15.2064C26.6586 15.4065 27.2984 16.0402 27.6312 16.5828C27.7909 16.8433 27.992 17.0788 28.0781 17.1063C28.2709 17.1679 28.4707 17.0127 28.4707 16.8014ZM36.6866 15.0217C36.6866 14.8827 36.6339 14.7661 36.5579 14.7368C36.3364 14.6512 35.8528 14.6913 35.3023 14.841C34.1902 15.1432 33.2139 15.7281 32.2329 16.68C31.583 17.3107 31.489 17.5667 31.8473 17.7309C32.0377 17.8183 32.0936 17.7835 32.681 17.2121C33.7191 16.2023 34.6171 15.6849 35.7181 15.4621C35.7691 15.4518 35.8173 15.442 35.8631 15.4328C36.4671 15.311 36.6294 15.2782 36.6722 15.1881C36.6879 15.155 36.6874 15.1141 36.6868 15.0582C36.6867 15.0467 36.6866 15.0345 36.6866 15.0217ZM39.0742 19.3917C38.9534 19.0749 37.2993 18.5937 35.8668 18.4587C35.3557 18.4105 34.8095 18.3766 34.6529 18.3833C34.0658 18.4085 33.3886 18.4962 33.2904 18.5599C33.1699 18.638 33.1544 18.9944 33.2684 19.0653C33.3123 19.0926 34.0352 19.1256 34.875 19.1386C36.4662 19.1633 37.1105 19.2584 38.0462 19.6062C38.7643 19.873 38.9349 19.8882 39.038 19.6944C39.0866 19.6031 39.1028 19.4668 39.0742 19.3917ZM31.9004 20.376L30.2059 19.6202C29.2739 19.2044 28.4688 18.8637 28.4167 18.863C28.3363 18.8619 28.0166 19.2159 26.7918 20.6618C26.6962 20.7747 26.4727 21.0382 26.2952 21.2473C26.1177 21.4563 25.5921 21.9685 25.127 22.3854C24.662 22.8024 23.9934 23.4048 23.6413 23.7243C23.2892 24.0437 22.9689 24.3174 22.9295 24.3323C22.8901 24.3474 22.8579 25.3314 22.8579 26.5191C22.8579 28.5948 22.8643 28.682 23.0206 28.7662C23.1362 28.8284 23.2304 28.8284 23.346 28.7662C23.5017 28.6824 23.5087 28.5948 23.5087 26.7299V24.7812L24.0171 24.2976C24.2967 24.0316 24.9715 23.4187 25.5167 22.9357C26.1249 22.3969 26.8934 21.5963 27.5055 20.864C28.3633 19.8377 28.529 19.6772 28.6882 19.7174C28.7902 19.7432 29.4085 20.0032 30.0624 20.2952C30.7163 20.5873 31.2757 20.8262 31.3054 20.8262C31.3352 20.8262 31.7004 21.4886 32.117 22.2981L32.8744 23.77L33.2553 23.8818C33.4647 23.9434 34.4513 24.1912 35.4475 24.4325L37.2589 24.8714L37.5198 25.4478C37.6633 25.7647 38.0106 26.4961 38.2916 27.0731C38.7756 28.0664 38.8145 28.1208 39.0258 28.0963C39.3682 28.0566 39.3516 27.7565 38.9605 26.9148C37.8973 24.6264 37.7492 24.345 37.5661 24.2649C37.4627 24.2197 36.4864 23.965 35.3965 23.6988C34.3067 23.4327 33.3861 23.184 33.3506 23.1461C33.3151 23.1083 32.9743 22.4695 32.5933 21.7266L31.9004 20.376ZM41.7296 20.3637C41.7292 20.0251 41.4437 19.6065 41.1207 19.4707C40.5241 19.2199 39.9911 19.4374 39.7444 20.0323C39.5958 20.3907 39.595 20.4227 39.7282 20.7736C39.8867 21.191 40.1504 21.3992 40.597 21.4595C41.1636 21.536 41.7304 20.9876 41.7296 20.3637ZM40.3471 20.4182C40.3471 20.2772 40.4054 20.1453 40.4894 20.0961L40.5078 20.0853C40.5852 20.0398 40.6234 20.0173 40.662 20.0168C40.6997 20.0163 40.7376 20.0368 40.8128 20.0774L40.8309 20.0872C41.132 20.2494 41.1163 20.6226 40.8035 20.7416C40.549 20.8384 40.3471 20.6953 40.3471 20.4182ZM58.8937 42.2723V38.0159V33.7594H57.2261H55.5586V37.6432V41.527H55.13H54.6638V42.0737C54.6638 42.0737 54.9196 42.0677 55.0871 42.0677H55.5179L55.539 46.5453L55.56 51.0231L56.8405 51.0474C57.5447 51.0608 58.2033 51.06 58.304 51.0456L58.487 51.0195V46.6459V42.2723H58.6903H58.8937ZM55.5586 41.527H56.4534H57.2261V41.8221V42.0677C57.2261 42.0677 56.6977 42.0725 56.372 42.0737C56.0464 42.0748 55.5586 42.0737 55.5586 42.0737V41.8723V41.527ZM75 36.6243V35.1918V33.7594H69.9566H64.9132V35.1918V36.6243H66.5808H68.2484V43.8276V51.0309H69.8346C71.1848 51.0309 71.4208 51.0368 71.4208 51.0368V50.7503H70.7701V50.4883V50.3001C70.7701 50.3001 71.0243 50.2942 71.2175 50.2942H71.6649V49.6393V48.9845H72.3874H73.1474V48.5752H72.3834H71.6649V42.5998V36.6243H73.3324H75ZM29.3232 36.9176C28.8887 35.2391 28.0149 34.3241 26.5041 33.9656C25.864 33.8138 24.0091 33.8128 23.2646 33.9639C22.134 34.1934 21.4302 34.5805 20.8572 35.2879C19.8805 36.4933 19.7238 38.8459 20.5117 40.4715C20.6867 40.8323 20.9716 41.2077 21.3972 41.638C21.7424 41.9869 22.0201 42.2743 22.0143 42.2768C22.0085 42.2792 21.3124 42.2768 21.3124 42.2768H20.4989V42.6706C20.4989 42.6706 20.7949 42.6823 22.1848 42.6706L23.7934 42.6572L23.8169 43.3652L23.8404 44.0732H25.1794H26.5184V46.2423V48.4115H24.7289H22.9393V46.979V45.5465H21.1903H19.4414V45.7512V45.9558H18.872H18.3026V46.2423V46.5288H18.8693H19.4361L19.4591 47.4497L19.4821 48.3706L20.3566 48.356L21.231 48.3413V49.6861V51.0309H25.0522H28.8734L28.8957 49.7067L28.9181 48.3825L29.3655 48.3765L29.8129 48.3706L29.8344 45.7716L29.8559 43.1727H29.6107C29.5015 43.1727 29.3655 43.1787 29.3655 43.1787V42.9272V42.6876C29.3666 42.6882 29.3978 42.6927 30.0976 42.6876C30.2354 42.6866 30.5857 42.6876 30.5857 42.6876V42.2783C30.5857 42.2783 30.3644 42.2723 29.9756 42.2723C29.5289 42.2723 29.3655 42.2783 29.3655 42.2783V42.477V42.6876L27.3726 42.6816H25.3796V42.4789V42.276L26.8642 42.2537L28.3487 42.2314L27.8444 41.8834C27.5671 41.6919 27.0181 41.3843 26.6243 41.1998C24.4213 40.1677 23.9263 39.8965 23.6473 39.5685C23.294 39.1531 23.1482 38.6461 23.204 38.0271C23.2916 37.0549 23.6834 36.7077 24.7534 36.6541C26.0074 36.5913 26.5777 36.9934 26.7789 38.0822L26.8743 38.5984L27.3268 38.5563C28.1762 38.477 29.406 38.396 29.4788 38.4145C29.5744 38.4387 29.4787 37.5185 29.3232 36.9176ZM19.4414 45.9558H19.9751H20.4989V46.2483V46.5348C20.4989 46.5348 20.0719 46.5478 19.8482 46.5411L19.4414 46.5288V46.2423V45.9558ZM1.09336 43.6639H2.23698V43.1727H1.09271H0V43.4183V43.6639H1.09336ZM17.4892 51.0309V49.6802V48.3296H16.269H15.0488V49.6802V51.0309H16.269H17.4892ZM34.9783 51.0309V49.6802V48.3296H33.7988H32.6193V49.6802V51.0309H33.7988H34.9783ZM52.8742 51.0309V49.6802V48.3296H51.6995C51.0534 48.3296 50.5131 48.3572 50.4987 48.391C50.4843 48.4248 50.4847 49.0325 50.4996 49.7416L50.5267 51.0309H51.7004H52.8742ZM63.6931 51.0309V49.6802V48.3296H62.4729H61.2527V49.6802V51.0309H62.4729H63.6931ZM70.4854 48.9904V48.5752H71.6242V48.9904C71.6242 48.9904 71.466 48.9845 71.0166 48.9845C70.5163 48.9845 70.4854 48.9904 70.4854 48.9904ZM11.1849 50.9959H13.0965V50.7503H11.1849H9.27332V50.9959H11.1849ZM64.7505 54.1354C64.7505 54.3535 64.7038 54.3497 64.13 54.0838C63.7416 53.904 63.5156 53.8588 62.9203 53.842C62.5176 53.8306 62.0594 53.8542 61.902 53.8943C60.887 54.1529 60.0886 54.8406 59.798 55.7064C59.588 56.3324 59.5683 57.3215 59.7529 57.9832C60.2667 59.8252 62.5145 60.5337 64.6489 59.5264L65.1573 59.2864V58.5966C65.1573 57.9197 65.161 57.9067 65.3558 57.9067C65.5829 57.9067 65.6625 57.8216 65.5725 57.6751C65.5274 57.6016 65.2349 57.5804 64.5001 57.5971C63.6664 57.6162 63.4897 57.6417 63.4897 57.743C63.4897 57.833 63.6012 57.8723 63.9083 57.8903C64.3812 57.9178 64.4221 57.9787 64.424 58.6572C64.4255 59.1587 64.3786 59.2632 64.0647 59.4584C63.6421 59.7214 62.781 59.7639 62.2182 59.5499C61.0642 59.111 60.3511 57.6616 60.6025 56.2664C60.8124 55.1018 61.4435 54.3569 62.4035 54.1407C62.9568 54.016 63.2792 54.069 63.9155 54.3891C64.5985 54.7324 64.6974 54.8646 64.6797 55.41C64.6668 55.8072 64.6838 55.8603 64.824 55.8603C64.9548 55.8603 64.9921 55.7844 65.0352 55.4306C65.0639 55.1942 65.0757 54.7802 65.0614 54.5105C65.0406 54.1211 65.006 54.0146 64.8929 53.9929C64.7944 53.974 64.7505 54.0179 64.7505 54.1354ZM11.9893 55.9013C11.7543 55.3649 11.3698 54.4134 11.2864 54.1618L11.1983 53.8958H10.3171C9.58812 53.8958 9.43601 53.917 9.43601 54.0186C9.43601 54.0981 9.52191 54.145 9.68004 54.1516C10.0136 54.1656 10.0659 54.1749 10.1206 54.23C10.1722 54.2818 10.0262 58.8462 9.95946 59.2728C9.9244 59.4965 9.88113 59.5375 9.65694 59.5593C9.48986 59.5756 9.39534 59.6291 9.39534 59.7075C9.39534 59.8076 9.55697 59.8346 10.2698 59.8536C11.1024 59.8757 11.1443 59.8688 11.1443 59.7103C11.1443 59.5681 11.092 59.5438 10.787 59.5438C10.4713 59.5438 10.4237 59.5194 10.3773 59.3335C10.3058 59.0468 10.4224 54.3637 10.4991 54.4449C10.5555 54.5046 11.2813 56.2727 12.2982 58.8276C12.5267 59.4016 12.742 59.8712 12.7768 59.8712C12.9121 59.8712 13.4293 58.906 13.7799 57.9991C13.9823 57.4756 14.3532 56.5131 14.6043 55.8603C14.8553 55.2075 15.0946 54.6384 15.1361 54.5957C15.1825 54.5479 15.2115 55.4854 15.2115 57.0309V59.5438H14.9268C14.6949 59.5438 14.6421 59.5747 14.6421 59.71C14.6421 59.8694 14.6837 59.8752 15.6792 59.8532C16.5368 59.8342 16.7164 59.809 16.7164 59.7075C16.7164 59.6253 16.618 59.5765 16.4186 59.5598L16.1208 59.5348L16.0681 58.7822C16.039 58.3682 16.0266 57.1639 16.0405 56.1059L16.0656 54.1823L16.33 54.1567C16.4971 54.1405 16.5944 54.0866 16.5944 54.0104C16.5944 53.9109 16.4572 53.894 15.8112 53.9133L15.028 53.9367L14.7896 54.5506C14.6585 54.8883 14.3926 55.5882 14.1988 56.1059C13.2249 58.7066 13.1453 58.8788 13.0479 58.5957C13.0181 58.5094 12.9107 58.2362 12.809 57.9886C12.7073 57.741 12.5055 57.2253 12.3605 56.8426C12.2156 56.4599 12.0485 56.0363 11.9893 55.9013ZM23.7626 54.1414C23.9888 54.1414 24.0781 54.1066 24.0781 54.0186C24.0781 53.9149 23.8883 53.8958 22.8579 53.8958C21.8481 53.8958 21.6377 53.9162 21.6377 54.0141C21.6377 54.0972 21.7528 54.1398 22.0241 54.1573L22.4105 54.1823L22.432 56.8631L22.4534 59.5438H22.0456C21.6902 59.5438 21.6377 59.5652 21.6377 59.7097C21.6377 59.8698 21.6793 59.8748 22.8365 59.853C23.8873 59.8331 24.0386 59.8132 24.0618 59.6917C24.0831 59.5797 24.0133 59.5484 23.6967 59.528L23.3053 59.5029L23.2811 56.9375C23.2633 55.0668 23.2826 54.341 23.352 54.2568C23.4044 54.1933 23.5892 54.1414 23.7626 54.1414ZM34.5381 58.4797C34.4983 58.4797 32.9453 56.5963 31.6838 55.0183L30.789 53.8989L29.9553 53.8974C29.2677 53.896 29.1215 53.9173 29.1215 54.0186C29.1215 54.1317 29.2377 54.1648 29.6299 54.1632C29.76 54.1627 29.7722 54.2837 29.772 55.564C29.7718 56.3348 29.7477 57.5455 29.7185 58.2546L29.6654 59.5438H29.3527C29.0944 59.5438 29.0401 59.5722 29.0401 59.7075C29.0401 59.8622 29.0944 59.8712 30.0163 59.8712C30.9382 59.8712 30.9924 59.8622 30.9924 59.7075C30.9924 59.5636 30.9382 59.5438 30.545 59.5438H30.0976L30.1002 56.9858L30.1027 54.4279L30.2832 54.6401C30.3825 54.7569 30.8988 55.3831 31.4306 56.0317C31.9624 56.6803 32.5345 57.3767 32.7018 57.5793C33.5415 58.5961 34.3051 59.5292 34.4613 59.7295C34.5572 59.8525 34.6708 59.9531 34.7137 59.9531C34.8202 59.9531 34.8948 58.9633 34.9077 57.3828C34.9136 56.658 34.941 55.6414 34.9687 55.1236L35.019 54.1823L35.2834 54.1567C35.4471 54.1408 35.5477 54.0863 35.5477 54.0134C35.5477 53.918 35.3712 53.8958 34.6123 53.8958C33.8349 53.8958 33.6768 53.9166 33.6768 54.0186C33.6768 54.1129 33.7808 54.1414 34.1242 54.1414H34.5716V56.3105C34.5716 57.5036 34.5565 58.4797 34.5381 58.4797ZM42.7508 54.1414C42.9623 54.1414 43.0154 54.1128 42.9796 54.0186C42.9409 53.9173 42.7276 53.8958 41.7619 53.8958C40.7754 53.8958 40.5911 53.9151 40.5911 54.0186V54.0216C40.5911 54.0631 40.5911 54.0913 40.6038 54.1114C40.6305 54.1536 40.7134 54.1599 40.9709 54.1793L40.9795 54.1799C41.126 54.191 41.2724 54.2267 41.3049 54.2592C41.3836 54.3381 41.4321 58.198 41.3639 58.9461L41.3101 59.5354L40.9303 59.56C40.6578 59.5778 40.5504 59.6195 40.5504 59.7075C40.5504 59.8097 40.7409 59.8342 41.6854 59.8532C42.9194 59.878 43.0529 59.8591 42.9807 59.6697C42.9476 59.5829 42.8218 59.5438 42.5754 59.5438H42.218V56.8923C42.218 56.7219 42.2179 56.5621 42.2178 56.412C42.2165 54.7085 42.2162 54.2775 42.4002 54.1721C42.4625 54.1363 42.546 54.1379 42.6578 54.1401H42.6581C42.687 54.1407 42.7179 54.1414 42.7508 54.1414ZM52.5297 57.3865C52.4283 57.2579 51.7589 56.4291 51.0421 55.5448L49.7388 53.9367L48.8662 53.9135C48.1565 53.8946 47.9935 53.9119 47.9935 54.0063C47.9935 54.1254 48.2287 54.2201 48.5298 54.2221C48.6995 54.2232 48.7 54.2312 48.668 56.6993C48.6504 58.0613 48.6188 59.2584 48.5979 59.3596C48.5672 59.508 48.5047 59.5438 48.2767 59.5438C48.0478 59.5438 47.9935 59.5752 47.9935 59.7075C47.9935 59.8617 48.0477 59.8712 48.929 59.8712C49.8102 59.8712 49.8644 59.8617 49.8644 59.7075C49.8644 59.5639 49.8102 59.5438 49.4214 59.5438H48.9785L48.972 57.0472C48.9669 55.0722 48.9872 54.5516 49.0693 54.5554C49.1263 54.558 49.557 55.0395 50.0265 55.6253C50.4959 56.2112 50.9352 56.7532 51.0026 56.8297C51.07 56.9064 51.4337 57.3549 51.8108 57.8267C53.0869 59.4234 53.6305 60.0433 53.6964 59.977C53.7325 59.9407 53.791 58.6418 53.8265 57.0905L53.891 54.27L54.196 54.1976C54.3691 54.1564 54.5011 54.0755 54.5011 54.0105C54.5011 53.9186 54.3076 53.8958 53.5249 53.8958C52.7265 53.8958 52.5488 53.9174 52.5488 54.0145C52.5488 54.1016 52.6733 54.1397 53.0165 54.1577L53.4843 54.1823L53.506 56.331C53.5179 57.5128 53.4996 58.4779 53.4653 58.4757C53.4101 58.4722 53.1124 58.1257 52.5297 57.3865ZM46.7152 36.173C46.3581 35.027 45.9656 34.342 44.7397 33.9291C44.7397 33.9291 44.2203 33.8462 43.8856 33.8082C42.615 33.6635 40.6114 33.7773 40.6114 33.7773L37.3373 33.7464V37.9134V42.1086H37.5813H37.8254C37.8254 42.1086 37.8232 42.7224 37.8254 42.7635H37.3373H36.7679V42.9272V43.0909C36.7679 43.0909 36.9167 43.0908 37.0323 43.0908L37.256 43.0909V43.5002V43.9094H37.5209H37.9067V44.5234V46.2547V47.3474H38.5575H39.2082V47.7157V48.0841H38.5575H37.9067V49.419V50.754H38.3541H38.8829V50.9959C38.8829 50.9959 38.9398 51.0309 41.0792 51.0309C43.1838 51.0309 43.2755 51.0368 43.2755 51.0368V50.7503C43.2755 50.7503 44.0441 50.7376 45.3498 50.7503L47.3428 50.7444V50.3595V49.9318H46.814H46.2852L46.2744 49.4756H46.8086H47.3427V48.5343V47.5989H47.0174V46.0786V44.5643C47.0174 44.5643 47.2515 44.5762 47.3427 44.5643L48.0342 44.5703L48.5629 44.5643V44.2428H48.0748C48.0748 43.7108 47.6192 43.0928 47.3408 42.7839C47.1985 42.6261 47.0223 42.5179 46.9077 42.5179C46.8013 42.5179 46.5721 42.4026 46.3982 42.2616C46.2242 42.1207 45.948 41.9439 45.7842 41.8689L45.4867 41.7323L45.9367 41.2861C46.2099 41.0152 46.4867 40.6308 46.6411 40.3078C46.6411 40.3078 46.8225 39.9943 46.8953 39.7757C47.0823 39.215 47.0174 38.1855 47.0174 38.1855C47.0169 37.0617 46.9138 36.7604 46.787 36.3899L46.7868 36.3894L46.7866 36.3886C46.7634 36.3209 46.7394 36.2508 46.7152 36.173ZM43.8042 44.2369L45.4108 44.2556L47.0174 44.2838V44.5643L45.6548 44.5532C44.9591 44.5476 44.5238 44.5581 44.2515 44.5647C43.9053 44.573 43.8229 44.575 43.8042 44.5293V44.2369ZM43.8042 44.2369V43.7899V43.343L42.272 43.3193C41.4294 43.3062 40.7247 43.3109 40.7061 43.3297C40.6877 43.3484 40.6725 44.481 40.6725 45.8467V48.3296H41.6486C42.5705 48.3296 42.6247 48.2947 42.6247 48.2947V47.9875C42.6247 47.9875 43.0275 47.9928 43.2552 47.9875H43.8042V47.7567V46.1571C43.8042 45.0875 43.7636 44.5293 43.7636 44.5293H42.9908H42.218V44.2428C42.218 44.2428 42.3067 44.2369 43.0111 44.2369H43.8042ZM37.8254 42.7635C37.8254 42.7635 38.5554 42.7459 38.6592 42.7459C39.0813 42.7584 39.4523 42.7635 39.4523 42.7635V42.9301V43.0909H38.6795H37.9067V42.9272V42.7635H37.8254ZM40.7131 40.9818L40.7361 38.844L40.7591 36.7062L41.6309 36.7125C43.1079 36.7231 43.3833 36.8984 43.5347 37.9247C43.6363 38.6143 43.5245 39.9025 43.33 40.281C43.264 40.4092 43.0515 40.6039 42.8579 40.7134C42.5592 40.8823 42.369 40.9179 41.6094 40.9473L40.7131 40.9818ZM37.4187 43.2546H37.6627H37.8661V43.4183H37.4187V43.2546ZM37.8254 43.7457H37.622H37.4187V43.582H37.622H37.8254V43.7457ZM9.19344 34.1073C9.24241 34.2986 9.36792 34.7314 9.47229 35.0691C9.57665 35.4067 10.1671 37.3866 10.7845 39.4688L11.907 43.2546H12.1764H12.4458V44.4415V45.6284V47.309V48.9026H11.8303H11.2148L11.2256 49.3588C11.2256 49.3588 11.2799 49.3534 11.856 49.3769L12.4458 49.401V49.9703V50.5397H10.8595H9.27332V48.833V47.1262L8.15483 47.0765C7.5397 47.0492 6.70689 47.0434 6.30423 47.0635C5.90157 47.0836 5.28742 47.0765 5.28742 47.0765V47.8385V48.5752H4.51464H3.74187V49.803V51.0309L2.25732 51.0282C1.14974 51.0263 1.0628 51.0345 1.05748 51.0364V49.6917V48.5752H1.66757H2.27766V46.1605V43.7457H2.76573C3.03416 43.7457 3.2538 43.7288 3.2538 43.7081C3.2538 43.6714 4.29623 40.1488 4.67188 38.9163C4.77478 38.5786 5.16296 37.2802 5.53454 36.0309L6.21011 33.7594H7.65724H9.10437L9.19344 34.1073ZM1.05748 51.0364V51.0368C1.05748 51.0368 1.05725 51.0368 1.05719 51.0367C1.05715 51.0366 1.0572 51.0365 1.05748 51.0364ZM7.54189 38.7526C7.54189 38.7526 7.41735 39.2805 7.32169 39.7757C7.15754 40.6256 6.58715 43.1829 6.28096 44.4415C6.2443 44.5923 6.20149 44.751 6.16681 44.8795C6.129 45.0196 6.10087 45.124 6.10087 45.1432C6.10087 45.1432 6.5808 45.1488 7.11768 45.1486L8.09382 45.1484L8.11046 45.1479V44.4277H8.29173V44.7612L8.35469 44.6651L8.51681 44.4277H8.74043L8.48663 44.7617L8.7122 45.1373H8.90727L8.78525 44.155C8.71049 43.5061 8.66323 43.1787 8.66323 43.1787H8.4192L8.14246 41.1877L7.56508 38.6767L7.54189 38.7526ZM8.4994 45.1373L8.36584 44.9028L8.29173 44.9844V45.143L8.4994 45.1373ZM26.3527 46.6576V46.5467H26.0626V46.3824H26.309V46.2751H26.0626V46.1287H26.3531V46.0175H26.0626H26.014H25.9201V46.6576H26.014H26.0626H26.3527ZM26.0219 46.836L26.1464 47.1209L26.2718 46.836H26.4256L26.2189 47.2449V47.4761H26.0744V47.2449L25.8673 46.836H26.0219ZM25.9436 47.6546H25.8776H25.8255H25.7575V48.2947H25.8999V48.1289L25.8857 47.8272L26.0484 48.2947H26.1441L26.3068 47.8272L26.2926 48.1289V48.2947H26.4355V47.6546H26.3669H26.3149H26.2489L26.0964 48.1122L25.9436 47.6546ZM5.53145 47.482V47.5491V47.6156V47.681L6.28326 47.9361V47.7319L5.73512 47.5818L6.28326 47.4317V47.2285L5.53145 47.482ZM2.7703 43.0681L2.63811 42.8104H2.44602L2.66031 43.1855L2.44035 43.5669H2.63449L2.7703 43.3045L2.90661 43.5669H3.10024L2.8808 43.1855L3.09456 42.8104H2.90248L2.7703 43.0681ZM13.226 44.009V44.1399H12.7664H12.6874H12.6467V44.0474L13.014 43.5148H12.6456V43.3834H13.1047H13.1645H13.2203V43.4737L12.8557 44.009H13.226ZM12.9611 44.3656H12.6725V45.1221H12.8408V44.8488H12.9514L13.0886 45.1221H13.2689V45.1143L13.1087 44.807C13.1295 44.7972 13.1483 44.7857 13.1651 44.7724C13.1895 44.7534 13.2085 44.7293 13.2219 44.7002C13.2353 44.6711 13.2421 44.6358 13.2421 44.5942C13.2421 44.5444 13.2307 44.5025 13.208 44.4685C13.1852 44.4345 13.1527 44.4089 13.1104 44.3916C13.0684 44.3743 13.0186 44.3656 12.9611 44.3656ZM12.8408 44.7174H12.9617C12.9868 44.7174 13.0076 44.7129 13.0241 44.7038C13.0406 44.6948 13.053 44.6822 13.0613 44.6659C13.0699 44.6493 13.0742 44.6299 13.0742 44.6077C13.0742 44.5849 13.0699 44.5651 13.0613 44.5485C13.0527 44.5319 13.04 44.5193 13.0231 44.5106C13.0066 44.5016 12.9859 44.4971 12.9611 44.4971H12.8408V44.7174ZM13.0319 45.5705V46.1862H12.8506V45.5705H12.6296V45.4297H12.8506H13.0319H13.258V45.5705H13.0319ZM12.9271 47.2504H12.8605L12.6085 46.4939H12.8104L12.9595 47.0455L13.1088 46.4939H13.3118L13.0582 47.2504H12.9931H12.9271ZM13.304 47.8393V47.87C13.304 47.9278 13.296 47.9798 13.2798 48.0259C13.2639 48.0715 13.2414 48.1108 13.2121 48.1432C13.1829 48.1755 13.1483 48.2002 13.1084 48.2176C13.0685 48.2345 13.0244 48.243 12.9762 48.243C12.9277 48.243 12.8832 48.2345 12.843 48.2176C12.803 48.2002 12.7683 48.1755 12.7387 48.1432C12.7094 48.1108 12.6867 48.0715 12.6705 48.0259C12.6547 47.9798 12.6468 47.9278 12.6468 47.87V47.8393C12.6468 47.7814 12.6547 47.7295 12.6705 47.6835C12.6867 47.6374 12.7092 47.5983 12.7381 47.566C12.7674 47.5334 12.802 47.5087 12.8419 47.4917C12.8822 47.4744 12.9266 47.4657 12.9752 47.4657C13.0233 47.4657 13.0674 47.4744 13.1073 47.4917C13.1476 47.5087 13.1823 47.5334 13.2116 47.566C13.2409 47.5983 13.2636 47.6374 13.2798 47.6835C13.296 47.7295 13.304 47.7814 13.304 47.8393ZM13.1203 47.87V47.8383C13.1203 47.8008 13.1169 47.7679 13.1104 47.7395C13.1043 47.7108 13.0949 47.6867 13.0825 47.6673C13.0702 47.6479 13.0548 47.6334 13.0366 47.6237C13.0187 47.6136 12.9982 47.6087 12.9752 47.6087C12.9511 47.6087 12.93 47.6136 12.9121 47.6237C12.8942 47.6334 12.8793 47.6479 12.8672 47.6673C12.8552 47.6867 12.8461 47.7108 12.8399 47.7395C12.834 47.7679 12.8311 47.8008 12.8311 47.8383V47.87C12.8311 47.907 12.834 47.9399 12.8399 47.9687C12.8461 47.9971 12.8552 48.0212 12.8672 48.0409C12.8796 48.0607 12.8948 48.0756 12.9127 48.0856C12.9309 48.0957 12.9521 48.1007 12.9762 48.1007C12.9992 48.1007 13.0197 48.0957 13.0376 48.0856C13.0555 48.0756 13.0705 48.0607 13.0825 48.0409C13.0949 48.0212 13.1043 47.9971 13.1104 47.9687C13.1169 47.9399 13.1203 47.907 13.1203 47.87ZM47.4421 44.6112V45.1329C47.4421 45.1571 47.4385 45.1779 47.4312 45.1952C47.424 45.2122 47.4138 45.2252 47.4007 45.2342C47.3877 45.2429 47.3722 45.2472 47.3543 45.2472C47.3357 45.2472 47.3199 45.244 47.3068 45.2378C47.2937 45.2316 47.2838 45.2208 47.2768 45.2056C47.2703 45.19 47.267 45.1689 47.267 45.1422H47.0987C47.0987 45.1962 47.1095 45.2407 47.1312 45.2758C47.1533 45.3104 47.1835 45.3362 47.2221 45.3531C47.2607 45.3698 47.3047 45.3781 47.3543 45.3781C47.4025 45.3781 47.4457 45.3683 47.4839 45.3485C47.5224 45.3284 47.5529 45.3002 47.5753 45.2638C47.598 45.2271 47.6094 45.1834 47.6094 45.1329V44.6112H47.4421ZM47.378 46.4318H47.3083H47.2128H47.14V45.6753H47.2097H47.3083H47.377C47.428 45.6753 47.4744 45.684 47.5164 45.7013C47.5588 45.7186 47.5952 45.7434 47.6259 45.7756C47.6569 45.8078 47.6808 45.8459 47.6976 45.8899C47.7146 45.9339 47.7229 45.9829 47.7229 46.0369V46.0707C47.7229 46.1244 47.7146 46.1734 47.6976 46.2178C47.6808 46.2617 47.6569 46.2999 47.6259 46.332C47.5952 46.364 47.5589 46.3885 47.517 46.4059C47.4749 46.4231 47.4286 46.4318 47.378 46.4318ZM47.378 46.3009H47.3083V45.8068H47.377C47.4052 45.8068 47.4302 45.8116 47.4519 45.8213C47.4739 45.831 47.4923 45.8456 47.5071 45.865C47.5219 45.8844 47.5332 45.9084 47.5407 45.9372C47.5483 45.9656 47.552 45.9985 47.552 46.0359V46.0707C47.552 46.1203 47.5454 46.1623 47.5319 46.197C47.5185 46.2313 47.4988 46.2572 47.473 46.2749C47.4473 46.2923 47.4155 46.3009 47.378 46.3009ZM47.3083 46.9766V46.789H47.6373V46.6576H47.3083H47.2614H47.14V47.4141H47.3083V47.1075H47.6042V46.9766H47.3083ZM43.7283 47.7544V47.8854H43.2687H43.1898H43.1489V47.7929L43.5163 47.2604H43.1479V47.1289H43.607H43.6668H43.7226V47.2193L43.358 47.7544H43.7283ZM41.5672 47.8964V47.9546L40.8155 48.2123V48.0242L41.3751 47.8636L40.8155 47.7026V47.5139L41.5672 47.7733V47.8299V47.8964ZM29.1826 49.0696V48.9038H29.2944C29.3154 48.9038 29.3322 48.9074 29.3447 48.9144C29.3575 48.9214 29.3668 48.9313 29.3726 48.9443C29.3788 48.9572 29.3818 48.9724 29.3818 48.99C29.3818 49.0049 29.3786 49.0184 29.3722 49.0305C29.3658 49.0425 29.3557 49.052 29.342 49.059C29.3283 49.0661 29.3106 49.0696 29.2887 49.0696H29.1826ZM29.4368 48.844C29.4316 48.847 29.4259 48.8497 29.4198 48.852C29.4326 48.8553 29.4439 48.8598 29.4538 48.8656C29.4783 48.8794 29.496 48.8975 29.5067 48.9201C29.5175 48.9426 29.5229 48.9665 29.5229 48.9918C29.5229 49.0334 29.514 49.0683 29.4962 49.0964C29.4785 49.1243 29.4521 49.1452 29.4172 49.1592C29.3825 49.1733 29.3397 49.1804 29.2887 49.1804H29.1826H29.0947H29.0401V48.5402H29.2655C29.3038 48.5402 29.3379 48.5438 29.3678 48.5508C29.3978 48.5578 29.4233 48.5686 29.4443 48.5833C29.4656 48.598 29.4817 48.6163 29.4927 48.6383C29.5039 48.6602 29.5094 48.6862 29.5094 48.7161C29.5094 48.7422 29.5036 48.7665 29.4919 48.7891C29.4805 48.8117 29.4621 48.83 29.4368 48.844ZM29.1826 48.808H29.2651C29.289 48.808 29.3084 48.805 29.3232 48.7992C29.3384 48.7933 29.3495 48.7848 29.3565 48.7737C29.3635 48.7622 29.367 48.7482 29.367 48.7315C29.367 48.7125 29.3635 48.6971 29.3565 48.6853C29.3495 48.6736 29.3384 48.6651 29.3232 48.6598C29.3084 48.6543 29.2892 48.6515 29.2655 48.6515H29.1826V48.808ZM29.5649 49.9989V49.3588H29.4233V49.7725L29.1826 49.3588H29.0401V49.9989H29.1826V49.5852L29.4229 49.9989H29.5649Z" fill="#080F4D"/>
</g>
<defs>
<clipPath id="clip0_70_2248">
<rect width="75" height="60" fill="white"/>
</clipPath>
</defs>
</svg>
